PathFileType	4	(X/Y/Z)	C:/Users/opensim2020/Desktop/walking_exp_matlab/subject06_walking12_straigt_04.trc																																																																																																																																														
DataRate	CameraRate	NumFrames	NumMarkers	Units	OrigDataRate	OrigDataStartFrame	OrigNumFrames																																																																																																																																										
100	100	4	48	mm	100	2766	181																																																																																																																																										
Frame#	Time	LFHD			RFHD			LBHD			RBHD			C7			T10			CLAV			STRN			RBAK			LSHO			LUPA			LELB			LFRM			LWRA			LWRB			LFIN			RSHO			RUPA			RELB			RFRM			RWRA			RWRB			RFIN			LASI			RASI			LPSI			RPSI			LTHI			LKNE			LTIB			LANK			LHEE			LTOE			RTHI			RKNE			RTIB			RANK			RHEE			RTOE			*39			*40			*41			*42			*43			*44			*45			*46			*47		
		X1	Y1	Z1	X2	Y2	Z2	X3	Y3	Z3	X4	Y4	Z4	X5	Y5	Z5	X6	Y6	Z6	X7	Y7	Z7	X8	Y8	Z8	X9	Y9	Z9	X10	Y10	Z10	X11	Y11	Z11	X12	Y12	Z12	X13	Y13	Z13	X14	Y14	Z14	X15	Y15	Z15	X16	Y16	Z16	X17	Y17	Z17	X18	Y18	Z18	X19	Y19	Z19	X20	Y20	Z20	X21	Y21	Z21	X22	Y22	Z22	X23	Y23	Z23	X24	Y24	Z24	X25	Y25	Z25	X26	Y26	Z26	X27	Y27	Z27	X28	Y28	Z28	X29	Y29	Z29	X30	Y30	Z30	X31	Y31	Z31	X32	Y32	Z32	X33	Y33	Z33	X34	Y34	Z34	X35	Y35	Z35	X36	Y36	Z36	X37	Y37	Z37	X38	Y38	Z38	X39	Y39	Z39	X40	Y40	Z40	X41	Y41	Z41	X42	Y42	Z42	X43	Y43	Z43	X44	Y44	Z44	X45	Y45	Z45	X46	Y46	Z46	X47	Y47	Z47	X48	Y48	Z48
																																																																																																																																																	
1	0	-1112.35107	1667.97998	-1513.03455	-1115.82434	1652.87878	-1381.97229	-1245.80286	1613.91785	-1518.35339	-1247.74023	1604.74365	-1389.99011	-1250.10217	1454.0752	-1461.29773	-1282.85583	1124.88708	-1461.36877	-1139.84253	1377.0907	-1463.12781	-1101.09558	1202.13	-1472.1189	-1323.43176	1283.36572	-1385.59558	-1200.91052	1410.58752	-1623.00342	-1183.12231	1214.32593	-1709.75623	-1167.28613	1104.03943	-1730.6095	-1114.54163	963.65332	-1753.65454	-1053.23364	853.51648	-1702.93408	-1097.41211	845.89862	-1758.39734	-1042.28784	774.24854	-1753.58118	-1184.86731	1407.38257	-1301.15942	-1229.39758	1207.72144	-1218.39929	-1225.47681	1084.70715	-1211.29993	-1217.42578	964.01239	-1197.97778	-1168.07336	821.86774	-1232.50745	-1221.61206	825.57831	-1192.00012	-1189.51526	747.66058	-1191.80273	-1096.61597	972.10223	-1571.50146	-1107.14075	968.87952	-1351.81262	-1255.67163	996.55347	-1547.45508	-1256.72375	988.01501	-1379.32642	-1162.07947	659.83337	-1637.01563	-1173.50415	495.1091	-1618.0365	-1224.8584	242.40381	-1608.29285	-1240.55005	70.36124	-1564.68542	-1280.62659	56.70152	-1519.38184	-1095.5282	41.41328	-1563.72229	-1080.91602	642.67944	-1292.79102	-1027.52368	527.97986	-1310.87146	-1165.51953	312.87592	-1324.57507	-1275.49475	166.26509	-1374.44495	-1318.9762	162.27409	-1423.36743	-1163.34961	63.33307	-1367.86523	-1213.86572	1705.07617	-1455.05188	NaN	NaN	NaN	NaN	NaN	NaN	NaN	NaN	NaN	NaN	NaN	NaN	NaN	NaN	NaN	NaN	NaN	NaN	NaN	NaN	NaN	NaN	NaN	NaN
2	0.01	-1102.526	1667.89612	-1513.36072	-1106.18372	1652.65466	-1382.33557	-1235.97021	1613.90137	-1519.01807	-1238.16516	1604.59949	-1390.65637	-1240.58911	1454.00989	-1462.40747	-1273.35596	1124.90198	-1462.62537	-1130.20874	1377.00952	-1463.87024	-1091.39209	1202.00049	-1473.04712	-1314.10449	1283.27954	-1387.45837	-1190.67871	1410.92139	-1623.69434	-1169.66553	1215.56396	-1711.26392	-1151.16138	1105.66138	-1732.56152	-1095.01477	966.6391	-1755.53125	-1031.75244	857.77374	-1704.58496	-1075.13159	849.13513	-1760.36914	-1018.33002	779.07776	-1755.43018	-1175.96021	1407.07715	-1302.00305	-1222.25916	1207.72852	-1219.65393	-1219.82153	1084.755	-1212.81018	-1214.2572	963.97174	-1198.94495	-1167.79578	820.41577	-1232.55273	-1221.51111	825.61853	-1192.33777	-1191.27271	746.75946	-1192.11865	-1087.82141	971.48511	-1572.55896	-1097.36584	969.10144	-1353.06799	-1246.5708	996.42877	-1548.05579	-1247.16785	988.50195	-1379.88196	-1155.76477	659.1842	-1637.18225	-1168.42932	494.57019	-1617.90112	-1222.60303	242.34859	-1608.13892	-1240.26257	70.53834	-1564.51477	-1280.68018	57.0452	-1519.26257	-1095.1239	41.27152	-1563.56433	-1068.26477	644.4433	-1293.70996	-1014.20197	530.17505	-1312.45154	-1144.72278	308.7388	-1325.18286	-1247.60107	156.70346	-1374.56616	-1290.81445	150.32904	-1423.56763	-1130.00049	60.01657	-1367.31348	-1204.05042	1704.98279	-1455.52722	NaN	NaN	NaN	NaN	NaN	NaN	NaN	NaN	NaN	NaN	NaN	NaN	NaN	NaN	NaN	NaN	NaN	NaN	NaN	NaN	NaN	NaN	NaN	NaN
3	0.02	-1092.71423	1667.62671	-1513.68274	-1096.47632	1652.25635	-1382.73499	-1226.15881	1613.75793	-1519.6001	-1228.59509	1604.4292	-1391.33899	-1230.89758	1453.70813	-1463.33484	-1263.87292	1124.79688	-1463.7301	-1120.54309	1376.7417	-1464.56604	-1081.6521	1201.76794	-1473.99414	-1305.71179	1283.36938	-1389.82935	-1180.50391	1411.05859	-1624.32874	-1156.25537	1216.64355	-1712.66223	-1135.44092	1107.18811	-1734.45984	-1075.83008	969.57611	-1757.29761	-1010.43237	862.13458	-1705.99451	-1053.03564	852.57031	-1762.28442	-994.46271	783.94556	-1756.79187	-1166.93542	1406.61096	-1302.84888	-1214.99573	1207.59985	-1220.93384	-1214.02661	1084.81934	-1213.94543	-1210.9856	963.95874	-1199.74817	-1167.6084	819.23517	-1232.66028	-1221.20776	825.72699	-1192.54712	-1192.94019	746.1106	-1192.16809	-1079.02698	970.6391	-1573.62915	-1087.63257	969.11053	-1354.31995	-1237.49731	996.1485	-1548.53394	-1237.06104	988.67188	-1380.26892	-1149.42273	658.45538	-1637.07031	-1163.31702	493.91574	-1617.6936	-1220.30688	242.30084	-1607.92139	-1239.82129	70.63423	-1564.14038	-1280.25549	57.2652	-1518.88306	-1094.94824	41.17368	-1563.48877	-1055.75427	645.9715	-1294.63477	-1001.42053	532.01361	-1313.92371	-1124.26318	304.66238	-1325.72083	-1219.04993	147.10175	-1374.43091	-1261.66858	137.98219	-1423.51941	-1096.39319	57.08492	-1365.91516	-1194.3136	1704.74158	-1456.0282	NaN	NaN	NaN	NaN	NaN	NaN	NaN	NaN	NaN	NaN	NaN	NaN	NaN	NaN	NaN	NaN	NaN	NaN	NaN	NaN	NaN	NaN	NaN	NaN
4	0.03	-1082.84692	1667.27344	-1514.00342	-1086.84619	1651.74475	-1383.05322	-1216.38062	1613.47693	-1520.18799	-1219.01587	1603.96033	-1391.92261	-1221.18201	1453.29089	-1464.24036	-1254.20105	1124.44836	-1464.65674	-1110.86169	1376.30554	-1465.21631	-1071.83545	1201.35229	-1474.92212	-1295.8075	1282.78577	-1391.06189	-1170.37158	1410.9801	-1624.92944	-1142.90234	1217.57532	-1713.84998	-1120.078	1108.42688	-1736.18164	-1057.08435	972.4212	-1758.96729	-989.27478	866.6795	-1707.26892	-1031.08508	856.11346	-1763.9071	-970.84747	788.90497	-1757.81714	-1157.76428	1405.97913	-1303.61047	-1207.77686	1207.35693	-1222.16602	-1208.25073	1084.72803	-1215.07104	-1207.54431	963.83435	-1200.47351	-1166.96008	817.98627	-1232.56567	-1220.9729	825.84363	-1192.53345	-1194.29004	745.39557	-1192.08765	-1070.30444	969.61108	-1574.72925	-1077.87292	968.92963	-1355.4906	-1228.47986	995.68799	-1548.89661	-1227.32751	988.60065	-1380.6405	-1143.01062	657.58441	-1637.00647	-1158.11414	493.26154	-1617.49829	-1217.91809	242.19946	-1607.61877	-1239.49426	70.78361	-1563.73865	-1280.03503	57.57125	-1518.50061	-1094.52075	40.93803	-1563.22253	-1043.74548	647.22974	-1295.14514	-989.18439	533.39655	-1315.2854	-1104.13062	300.58487	-1325.98755	-1189.974	137.54349	-1374.02527	-1231.66785	125.72256	-1423.29285	-1062.495	54.55212	-1363.99719	-1184.56372	1704.36462	-1456.40601	NaN	NaN	NaN	NaN	NaN	NaN	NaN	NaN	NaN	NaN	NaN	NaN	NaN	NaN	NaN	NaN	NaN	NaN	NaN	NaN	NaN	NaN	NaN	NaN
